<?xml version="1.0" standalone="no"?><!DOCTYPE svg PUBLIC "-//W3C//DTD SVG 1.1//EN" "http://www.w3.org/Graphics/SVG/1.1/DTD/svg11.dtd"><svg t="1556331297680" class="icon" style="" viewBox="0 0 1024 1024" version="1.1" xmlns="http://www.w3.org/2000/svg" p-id="1845" xmlns:xlink="http://www.w3.org/1999/xlink" width="48" height="48"><defs><style type="text/css"></style></defs><path d="M515.244 457.813c-111.353 0-202.054-88.863-202.054-198.014 0-109.233 90.7-198.096 202.054-198.096 111.447 0 202.059 88.863 202.059 198.096 0 109.151-90.612 198.014-202.06 198.014z m0-355.524c-85.465 0-155.051 70.667-155.051 157.509 0 86.797 69.586 157.428 155.05 157.428 85.56 0 155.057-70.631 155.057-157.428 0-86.84-69.497-157.51-155.056-157.51zM855.184 960.378H167.501c-12.3 0-22.584-8.284-23.412-18.905l-15.144-191.556c-4.865-62.303 51.59-134.283 123.199-157.112 167.079-51.682 351.596-51.523 518.31-0.076 79.41 25.248 127.79 101.663 123.291 157.27l-15.06 191.435c-0.822 10.661-11.107 18.944-23.5 18.944z m-665.742-40.585h643.801l13.589-172.572c3.215-40.07-35.618-98.254-92.445-116.327-156.062-48.237-329.75-48.314-486.178 0.04-56.553 18.033-95.477 76.298-92.356 116.287l13.589 172.572z" fill="#1afa29" p-id="1846"></path></svg>